<?xml version="1.0" standalone="no"?>
<!DOCTYPE svg PUBLIC "-//W3C//DTD SVG 20010904//EN"
 "http://www.w3.org/TR/2001/REC-SVG-20010904/DTD/svg10.dtd">
<svg version="1.0" xmlns="http://www.w3.org/2000/svg"
 width="300.000000pt" height="300.000000pt" viewBox="0 0 300.000000 300.000000"
 preserveAspectRatio="xMidYMid meet">
<metadata>
Created by potrace 1.10, written by Peter Selinger 2001-2011
</metadata>
<g transform="translate(0.000000,300.000000) scale(0.100000,-0.100000)"
fill="#000000" stroke="none">
<path d="M1830 2550 c-18 -13 -27 -15 -32 -7 -5 8 -10 5 -14 -10 -4 -15 -12
-20 -26 -18 -19 4 -19 3 -2 -23 l17 -27 -21 19 c-21 18 -21 18 -13 -10 6 -22
14 -29 33 -30 14 -1 30 -4 36 -8 6 -4 13 7 17 26 9 40 42 78 67 78 40 0 92
-33 171 -107 45 -43 105 -98 132 -121 l50 -43 -44 23 c-25 13 -86 62 -135 111
-119 114 -173 140 -208 100 -9 -10 -19 -29 -23 -43 -5 -21 -3 -20 14 8 23 35
38 44 21 12 -14 -27 -4 -42 23 -35 21 6 22 6 3 -9 -12 -10 -15 -16 -7 -16 7 0
11 -6 8 -12 -2 -7 9 -39 25 -72 28 -56 30 -57 44 -38 13 19 12 23 -11 46 -22
22 -26 31 -25 61 0 3 -6 20 -14 39 -8 19 -12 37 -9 40 17 17 115 -57 164 -126
16 -22 18 -32 9 -48 -11 -21 -64 -28 -75 -10 -12 19 -24 10 -23 -19 1 -37 -11
-59 -23 -40 -6 10 -11 6 -18 -14 -6 -16 -11 -37 -11 -48 0 -12 -4 -17 -11 -13
-6 4 -9 19 -5 38 4 22 3 27 -4 16 -14 -21 -12 -51 5 -84 8 -15 15 -36 15 -45
0 -27 12 -32 27 -13 13 16 14 15 8 -4 -3 -13 3 -32 17 -50 12 -16 23 -30 24
-32 1 -2 12 2 24 8 21 11 22 10 15 -21 -7 -31 -7 -32 10 -15 14 14 17 28 12
77 -5 59 -5 60 14 43 17 -15 19 -15 19 -1 0 9 -8 21 -17 26 -15 9 -13 11 12
11 27 1 26 2 -14 15 -24 7 -49 11 -55 9 -7 -3 -13 2 -13 11 0 8 7 15 16 16 9
0 3 5 -13 10 -19 5 -34 5 -42 -2 -8 -6 -14 -5 -18 7 -8 21 -8 49 1 41 3 -4 14
0 23 8 21 19 90 48 90 37 0 -4 -17 -16 -39 -25 -21 -9 -47 -27 -57 -39 l-19
-21 29 19 c16 10 48 26 70 34 32 12 42 22 50 50 5 19 10 36 11 38 2 2 23 -11
47 -27 52 -35 98 -55 98 -42 0 5 -11 31 -24 58 -13 26 -34 79 -47 116 -27 83
-33 86 -199 116 -137 25 -129 25 -160 1z m291 -61 c16 -8 49 -67 49 -88 0 -23
-27 -9 -77 40 -29 28 -53 55 -53 61 0 10 53 2 81 -13z m-126 -329 c-5 -15 0
-23 19 -32 21 -9 26 -18 26 -50 0 -31 -3 -38 -20 -38 -11 0 -20 6 -20 14 0 8
-6 17 -12 20 -10 5 -10 7 0 12 10 5 7 10 -10 18 -26 13 -40 60 -15 50 8 -3 17
2 20 10 9 23 19 19 12 -4z"/>
<path d="M1245 2525 c-73 -19 -291 -91 -367 -120 -10 -4 -16 -11 -13 -15 3 -5
1 -11 -5 -15 -11 -7 12 -72 46 -127 25 -40 34 -47 64 -53 29 -6 120 -66 120
-80 0 -6 12 -22 26 -36 51 -47 72 -98 83 -202 16 -158 76 -259 186 -312 77
-38 111 -32 146 25 44 72 46 94 11 130 -29 28 -35 30 -111 30 -94 0 -152 19
-181 60 -25 35 -26 47 -3 29 17 -13 17 -13 0 13 -19 31 -22 42 -7 33 15 -10 5
40 -24 110 -34 85 -38 129 -9 118 11 -4 14 -3 9 5 -5 8 2 12 19 12 14 0 24 4
21 9 -3 4 6 13 19 19 14 7 25 16 25 22 0 5 5 10 11 10 12 0 44 30 32 30 -4 0
1 7 11 15 14 11 16 15 5 15 -12 0 -12 2 1 10 13 9 13 10 0 10 -10 0 -5 10 15
27 26 23 27 25 6 18 -18 -6 -22 -4 -15 6 5 8 7 22 6 32 -2 10 3 17 14 17 13 0
14 3 4 15 -10 12 -10 15 4 15 9 0 16 5 16 10 0 6 3 9 8 8 11 -3 52 13 52 20 0
4 3 18 7 31 4 17 3 22 -5 17 -8 -4 -16 3 -22 18 -5 14 -12 26 -14 26 -3 0 -3
-7 0 -15 10 -25 -5 -17 -20 13 -9 15 -15 20 -16 12 0 -13 -1 -13 -10 0 -7 11
-10 11 -10 2 0 -9 -5 -10 -19 -2 -11 5 -21 10 -23 10 -2 -1 -43 -12 -93 -25z
m153 -17 c7 -7 12 -20 12 -30 0 -10 4 -18 9 -18 5 0 -6 -15 -24 -33 -20 -20
-38 -51 -44 -78 -29 -116 -48 -146 -112 -180 -20 -10 -49 -33 -63 -50 l-27
-32 -30 36 c-17 21 -38 37 -46 37 -9 0 -13 3 -10 7 4 3 0 14 -8 23 -13 14 -12
18 6 30 76 53 112 89 138 135 39 69 101 119 147 117 19 -1 39 -4 44 -7 15 -9
12 2 -6 19 -23 24 -75 20 -115 -9 -42 -32 -97 -101 -105 -132 -4 -12 -10 -21
-14 -18 -5 3 -11 -4 -15 -15 -4 -11 -10 -18 -14 -15 -5 2 -25 -11 -47 -30 -49
-44 -91 -62 -113 -48 -21 13 -95 152 -86 161 4 4 10 1 12 -6 3 -6 10 -9 16 -5
7 3 9 3 5 -2 -12 -13 50 -125 69 -125 30 0 92 51 166 138 95 112 136 142 197
142 25 0 51 -5 58 -12z m-228 -48 c0 -11 -88 -112 -134 -153 -17 -15 -40 -26
-50 -25 -21 3 -67 83 -60 103 4 10 204 84 232 85 6 0 12 -4 12 -10z m144 -725
c27 -8 78 -15 113 -15 109 0 135 -39 76 -117 -38 -51 -100 -38 -174 36 -36 35
-82 112 -66 111 1 0 24 -7 51 -15z"/>
<path d="M1675 2420 c-11 -5 -64 -9 -117 -9 -80 -1 -98 -4 -98 -16 0 -8 10
-17 23 -20 123 -27 147 -31 147 -24 0 12 72 -20 99 -44 19 -18 23 -18 18 -5
-4 13 -2 15 10 11 13 -5 15 -2 10 12 -6 15 -5 16 8 5 13 -10 15 -9 15 9 0 26
7 26 70 2 l51 -19 -18 31 c-34 60 -151 96 -218 67z m115 -20 c12 -7 10 -12 -9
-29 -29 -25 -59 -27 -91 -4 l-24 17 30 13 c35 15 74 16 94 3z"/>
<path d="M1670 2256 c0 -4 11 -30 26 -59 l25 -52 -28 30 c-15 17 -25 26 -20
21 15 -20 6 -24 -24 -9 -24 12 -38 13 -62 5 l-32 -10 41 -1 c26 -1 51 -9 65
-21 13 -10 19 -19 12 -20 -6 0 -14 4 -17 9 -16 25 -111 16 -135 -13 -10 -12
-6 -12 28 0 33 11 47 11 77 1 48 -15 57 -37 16 -37 -18 0 -44 -11 -64 -27 -25
-21 -28 -22 -14 -5 26 30 12 28 -37 -8 -65 -46 -106 -84 -82 -75 23 7 25 8 43
6 7 0 10 -5 7 -11 -3 -5 2 -10 12 -10 26 -1 58 -26 41 -33 -11 -4 -11 -6 0 -6
7 -1 23 4 35 11 20 10 21 10 8 -5 -8 -10 -9 -17 -3 -17 6 0 14 5 18 11 5 8 9
8 14 -1 4 -7 13 -9 19 -6 6 4 9 11 7 15 -3 4 2 8 10 8 8 0 13 -6 10 -13 -3 -9
2 -9 22 2 33 17 38 7 18 -41 -24 -56 -19 -65 9 -20 14 22 25 53 25 68 0 16 4
26 9 23 5 -3 8 2 7 12 0 9 -8 20 -16 24 -10 4 -4 7 15 8 17 1 24 4 17 7 -10 4
-10 8 -1 19 6 8 8 14 4 14 -4 0 -1 8 6 17 10 11 10 14 2 9 -20 -12 -15 4 12
36 14 16 25 35 25 41 -1 13 -30 -22 -30 -36 0 -4 -4 -6 -9 -3 -13 8 -38 -25
-44 -59 -13 -70 -23 -82 -73 -89 -47 -6 -114 9 -114 27 0 4 4 6 9 2 13 -8 41
23 41 46 0 12 14 26 39 38 21 11 41 30 44 41 4 17 11 20 26 15 18 -5 21 -2 21
25 0 21 -4 29 -12 24 -8 -5 -9 0 -6 14 4 12 2 20 -3 16 -5 -3 -9 1 -9 9 0 8
-7 20 -15 27 -8 7 -15 9 -15 6z"/>
<path d="M1764 2203 c-3 -10 -13 -35 -24 -55 -10 -21 -15 -40 -10 -43 10 -6
37 26 37 45 0 9 3 28 7 43 7 29 -1 38 -10 10z"/>
<path d="M2030 2203 c1 -5 16 -15 35 -24 28 -13 35 -14 35 -3 0 15 -30 34 -54
34 -9 0 -16 -3 -16 -7z"/>
<path d="M1554 2111 c-23 -10 -45 -24 -49 -31 -4 -7 4 -4 19 5 14 9 45 23 68
30 24 8 34 14 23 14 -11 0 -39 -8 -61 -18z"/>
<path d="M1130 1954 c-12 -32 -46 -124 -75 -204 -96 -265 -140 -358 -215 -452
-130 -166 -320 -472 -320 -517 0 -3 59 -6 130 -6 l130 0 0 56 c0 41 -4 58 -15
63 -22 8 -19 53 5 66 21 11 60 -2 60 -20 0 -6 29 -10 65 -10 l65 0 0 72 c0 53
-4 76 -17 90 -21 23 -8 51 25 56 30 5 45 -29 26 -57 -12 -16 -15 -42 -13 -104
l4 -82 -80 -3 c-44 -2 -84 -7 -89 -12 -5 -5 -10 -32 -10 -60 l-1 -50 107 0
108 0 0 210 c0 133 -4 210 -10 210 -5 0 -10 11 -10 24 0 28 26 42 46 25 16
-13 19 -49 4 -49 -6 0 -10 -33 -10 -78 l0 -79 35 1 35 1 0 78 c0 45 -4 77 -10
77 -5 0 -10 11 -10 24 0 14 5 28 10 31 6 4 10 87 10 216 l0 211 40 -7 c38 -6
55 5 30 20 -5 3 -10 11 -10 17 0 6 7 5 17 -3 11 -9 9 -3 -5 15 -25 33 -29 55
-7 36 19 -16 19 -7 -1 32 -10 19 -11 28 -3 23 9 -6 11 11 7 77 -3 47 -10 94
-16 103 -8 15 -13 8 -32 -41z m28 -36 c-10 -27 -99 -302 -163 -503 -37 -115
-82 -237 -101 -271 -37 -68 -92 -122 -155 -155 -49 -24 -119 -50 -119 -43 0 2
20 30 45 62 55 68 53 66 89 121 16 25 33 50 38 55 5 6 40 53 77 105 72 99 109
180 210 466 27 77 52 148 56 158 8 19 30 24 23 5z m-94 -533 c-37 -21 -56 -47
-45 -58 18 -18 13 -33 -14 -45 -29 -13 -30 -7 -12 45 8 21 24 72 37 113 35
112 44 117 48 29 3 -61 0 -76 -14 -84z m14 -48 c2 -11 -3 -17 -17 -17 -23 0
-35 15 -26 31 10 15 39 6 43 -14z m-164 -263 c3 -9 6 -36 6 -60 0 -43 -1 -44
-33 -44 -18 0 -42 6 -52 14 -18 13 -17 16 19 60 42 50 51 54 60 30z m-198
-151 c3 -10 10 -27 16 -39 5 -12 8 -32 6 -45 -3 -22 -8 -24 -72 -27 -38 -2
-73 1 -78 6 -16 16 29 91 65 106 44 19 57 19 63 -1z m259 -83 c0 -24 -3 -25
-63 -28 -49 -2 -64 0 -68 13 -12 30 16 46 75 43 52 -3 56 -5 56 -28z"/>
<path d="M2003 1923 c6 -10 -3 -13 -35 -14 l-43 -2 47 -6 c44 -6 91 -30 57
-28 -8 0 -25 -1 -39 -3 -26 -2 -14 -7 75 -25 17 -4 40 -11 53 -18 16 -8 25 -8
33 0 8 8 6 11 -7 10 -11 -1 -19 4 -19 13 0 9 -12 17 -30 20 -20 4 -31 12 -36
30 -4 14 -7 19 -8 12 -1 -9 -8 -8 -28 5 -15 10 -24 12 -20 6z"/>
<path d="M1906 1875 c-49 -17 -62 -30 -31 -30 12 0 21 4 18 9 -3 4 5 5 18 1
14 -4 20 -4 16 1 -5 5 11 14 35 20 38 11 39 12 13 13 -16 0 -47 -6 -69 -14z"/>
<path d="M1948 1809 c-51 -7 -148 -44 -148 -56 0 -3 8 -2 18 2 42 18 102 34
98 26 -3 -5 8 -11 25 -15 50 -10 69 -7 63 8 -3 8 4 16 18 20 19 5 20 8 8 16
-8 5 -17 9 -20 9 -3 -1 -30 -5 -62 -10z"/>
<path d="M2067 1789 c-45 -21 -48 -25 -44 -53 2 -17 8 -40 12 -51 8 -19 7 -19
-11 -4 -16 13 -23 14 -44 3 -25 -14 -25 -14 12 -14 28 0 38 -5 43 -20 3 -11 4
-24 0 -30 -3 -5 6 -12 20 -16 14 -3 25 -10 25 -15 0 -5 8 -9 17 -9 12 0 6 10
-20 37 -20 20 -37 39 -37 43 0 4 17 7 37 6 30 -1 40 4 48 22 10 24 20 28 30
12 10 -15 -33 -50 -62 -50 -27 -1 -27 -1 -9 -15 11 -8 28 -15 37 -15 47 0 28
-53 -43 -121 -28 -27 -48 -49 -44 -49 4 0 2 -9 -4 -21 -11 -19 -10 -20 9 -9
11 6 28 24 36 40 9 17 18 30 21 30 3 0 2 -4 -1 -10 -3 -5 -2 -17 3 -26 9 -16
11 -15 27 4 11 12 24 18 34 14 14 -5 14 -3 2 11 -7 9 -10 17 -6 17 4 0 2 7 -5
15 -20 24 -3 34 37 20 50 -17 66 -41 59 -90 l-6 -40 15 34 c8 18 15 43 16 55
0 20 1 20 9 1 7 -16 9 -11 9 20 0 22 -4 47 -10 55 -8 12 -10 9 -6 -12 2 -15 0
-25 -4 -22 -5 3 -9 0 -9 -6 0 -6 -4 -8 -10 -5 -5 3 -10 15 -10 26 0 10 -4 19
-10 19 -5 0 -10 -4 -10 -8 0 -12 -63 -7 -67 5 -2 5 17 31 43 56 30 30 44 52
40 62 -3 8 0 26 6 40 11 24 12 25 37 9 17 -11 10 -1 -17 26 -37 38 -48 44 -95
47 -38 3 -65 -2 -100 -18z m129 -30 c13 -10 13 -14 -2 -30 -13 -14 -21 -16
-36 -8 -14 8 -25 5 -49 -11 -24 -18 -33 -19 -44 -10 -41 34 10 84 78 76 21 -2
44 -10 53 -17z"/>
<path d="M1970 1740 c-21 -7 -22 -8 -5 -10 17 -2 16 -3 -5 -9 l-25 -7 27 -6
c15 -3 25 -1 22 3 -3 5 -1 9 4 9 5 0 9 7 9 15 0 8 -1 15 -1 14 -1 -1 -12 -5
-26 -9z"/>
<path d="M2267 1700 c9 -10 18 -25 19 -32 4 -23 34 -74 34 -57 0 28 -22 84
-38 97 -24 19 -34 14 -15 -8z"/>
<path d="M1780 1650 c-11 -11 -20 -26 -20 -32 0 -7 7 -2 16 10 8 12 22 22 30
22 8 0 14 5 14 10 0 16 -18 12 -40 -10z"/>
<path d="M1135 1456 c0 -107 3 -198 8 -202 10 -10 9 -52 -1 -58 -5 -3 -8 -37
-8 -76 l1 -72 53 -2 52 -1 0 60 0 60 84 81 c51 48 85 90 88 105 2 18 9 24 27
24 28 0 47 -25 38 -49 -4 -9 -17 -16 -29 -16 -16 0 -49 -27 -105 -82 -78 -80
-81 -85 -82 -133 l-1 -50 77 77 78 77 140 2 c117 3 140 1 140 -11 0 -12 -25
-16 -135 -18 l-135 -3 -75 -74 -75 -75 -118 0 -117 0 0 -120 0 -120 35 0 35 0
0 51 c0 31 -6 56 -15 65 -8 8 -12 21 -9 29 8 19 35 28 48 15 5 -5 37 -10 71
-10 58 0 63 -2 100 -40 l39 -40 103 0 c57 0 103 -4 103 -9 0 -6 -47 -11 -105
-13 l-106 -3 -36 38 c-35 35 -40 37 -100 37 l-63 0 0 -60 0 -60 203 0 203 0
63 -64 64 -65 -2 -80 -2 -81 61 0 c38 0 70 6 84 15 22 14 25 14 40 0 9 -9 16
-20 16 -25 0 -5 -7 -16 -16 -25 -15 -14 -18 -14 -40 0 -14 9 -46 15 -84 15
l-60 0 0 -40 0 -40 146 0 147 0 -7 83 c-9 106 -26 172 -87 335 -73 196 -90
267 -92 404 -2 114 -8 141 -23 96 -9 -31 -6 -184 5 -244 9 -45 54 -182 125
-380 34 -97 48 -192 37 -256 0 -5 -15 -8 -31 -8 -30 0 -30 0 -14 25 34 52 -17
111 -74 86 -31 -15 -75 -14 -90 1 -7 7 -12 34 -12 60 0 64 -17 95 -89 159 -50
46 -58 58 -54 81 4 23 1 28 -20 33 -14 4 -35 5 -47 3 -20 -3 -26 5 -42 52 -11
30 -20 75 -20 99 -1 42 3 48 50 92 l51 47 65 -5 c79 -7 112 1 119 27 8 30 -17
44 -69 36 -56 -7 -52 1 27 55 58 39 60 41 43 60 -21 24 -28 24 -20 2 6 -16 5
-16 -8 -3 -8 8 -22 29 -31 45 l-16 30 6 -35 c4 -19 12 -40 17 -47 14 -17 4
-29 -50 -60 -38 -23 -60 -28 -124 -30 -84 -2 -100 9 -45 32 40 17 63 42 72 78
8 31 9 31 36 17 15 -9 19 -7 19 5 0 9 -4 13 -10 10 -15 -10 -12 81 4 120 8 19
13 35 10 35 -10 0 -44 -86 -45 -115 -1 -17 -3 -22 -6 -12 -2 9 -8 17 -13 17
-5 0 -11 -8 -13 -17 -2 -10 -2 2 0 26 3 24 7 51 9 60 2 9 -6 -4 -17 -29 -26
-53 -37 -40 -14 16 8 20 13 39 11 42 -3 2 -20 -1 -38 -6 -79 -24 -135 -24 -66
0 l33 12 -59 13 c-61 14 -127 53 -90 53 11 0 3 8 -21 19 -22 11 -34 20 -27 20
7 1 10 6 7 11 -3 6 -25 10 -48 10 l-42 0 0 -194z m170 54 c28 -19 68 -36 90
-39 34 -5 40 -10 43 -32 2 -19 -3 -28 -22 -37 -14 -6 -32 -26 -42 -44 -9 -18
-48 -65 -87 -105 -60 -61 -71 -79 -76 -115 -4 -31 -11 -44 -24 -46 -17 -4 -18
2 -13 55 3 32 5 65 5 73 0 8 -2 93 -5 188 -3 95 -3 180 0 189 6 14 13 10 44
-19 20 -19 60 -50 87 -68z m121 -412 c-18 -25 -22 -114 -7 -165 8 -26 6 -35
-6 -42 -24 -13 -54 -1 -102 41 -24 21 -49 38 -54 38 -6 0 9 13 34 29 24 16 66
51 93 80 50 51 71 61 42 19z m-168 -244 c38 -27 28 -44 -27 -44 -36 0 -51 4
-55 16 -15 39 40 58 82 28z"/>
<path d="M1761 1544 c-42 -48 -49 -50 -30 -11 10 21 10 21 -5 3 -18 -22 -23
-111 -6 -101 6 3 10 15 10 26 0 28 17 58 53 97 17 17 28 32 25 32 -4 0 -25
-21 -47 -46z"/>
<path d="M1866 1550 c-20 -22 -36 -43 -36 -48 1 -4 12 7 25 23 13 17 34 38 46
48 12 9 17 17 11 17 -5 0 -26 -18 -46 -40z"/>
<path d="M1914 1561 c-47 -35 -84 -91 -60 -91 9 0 16 5 16 10 0 6 21 33 46 60
26 28 45 50 42 50 -2 0 -22 -13 -44 -29z"/>
<path d="M1638 1546 c-19 -40 -35 -139 -19 -116 6 8 11 28 11 43 0 15 7 44 15
64 19 46 14 53 -7 9z"/>
<path d="M1793 1548 c-36 -38 -53 -69 -53 -95 1 -15 5 -13 21 9 20 28 71 118
66 118 -2 0 -17 -15 -34 -32z"/>
<path d="M1821 1537 c-11 -19 -21 -41 -21 -48 0 -8 12 6 25 30 30 52 27 67 -4
18z"/>
<path d="M2105 1560 c-3 -5 -15 -10 -25 -10 -17 0 -47 -36 -38 -45 2 -2 21 12
43 31 22 18 37 34 33 34 -4 0 -10 -4 -13 -10z"/>
<path d="M1922 1527 c-18 -18 -32 -38 -32 -44 0 -21 35 -8 54 21 12 17 22 24
24 17 4 -13 31 15 32 33 0 6 -7 1 -15 -10 -8 -10 -15 -15 -15 -10 0 5 -12 -1
-27 -15 -26 -24 -23 -10 5 24 26 30 8 19 -26 -16z"/>
<path d="M1661 1524 c-6 -15 -15 -47 -18 -73 -6 -44 -5 -45 12 -31 10 8 21 14
24 12 3 -2 8 6 13 17 10 28 0 27 -13 -1 -7 -17 -8 -7 -5 40 2 34 3 62 2 62 -2
0 -8 -12 -15 -26z"/>
<path d="M2018 1516 c-17 -20 -17 -20 -11 -1 6 19 5 19 -13 3 -10 -9 -23 -16
-28 -15 -5 1 -12 -7 -16 -19 -8 -21 -8 -21 35 -5 27 9 46 23 49 35 7 27 4 28
-16 2z"/>
<path d="M1572 1481 c-15 -42 -17 -84 -2 -61 11 17 13 10 10 -36 -1 -18 4 -35
10 -39 9 -6 10 2 6 26 -4 25 -4 29 3 14 5 -11 12 -28 15 -37 3 -10 10 -18 15
-18 6 0 1 21 -11 48 -12 26 -24 67 -27 92 l-6 45 -13 -34z"/>
<path d="M2216 1465 c-5 -13 -13 -16 -36 -12 -31 7 -30 10 -44 -91 -4 -30 17
-12 34 28 7 16 16 27 21 25 4 -3 12 3 18 12 10 17 10 17 11 -2 1 -18 2 -18 11
3 5 14 5 30 0 39 -7 13 -9 13 -15 -2z"/>
<path d="M1977 1425 c-21 -22 -44 -73 -35 -80 2 -1 22 22 46 52 43 55 36 74
-11 28z"/>
<path d="M2066 1375 c-3 -8 -9 -14 -13 -13 -4 1 -18 -3 -30 -10 -13 -7 -23
-10 -23 -6 0 3 -7 1 -15 -6 -8 -7 -13 -16 -10 -20 13 -20 -36 -18 -103 5 -94
32 -107 32 -78 0 27 -29 38 -32 29 -7 -4 9 6 4 21 -13 27 -29 27 -30 21 -5 -6
24 -6 24 19 -5 14 -16 25 -24 26 -17 0 7 4 11 10 7 5 -3 7 -13 4 -23 -5 -15
-4 -15 8 -1 7 9 18 14 24 12 6 -2 30 17 52 41 51 56 56 46 6 -12 -19 -23 -33
-42 -30 -42 16 0 84 51 114 85 38 44 37 55 -3 23 l-27 -21 6 21 c8 25 1 30 -8
7z"/>
<path d="M484 715 c-8 -19 -43 -98 -79 -177 -36 -78 -65 -143 -65 -145 0 -2
53 -3 118 -3 l117 0 -3 52 c-4 62 -32 101 -66 93 -30 -7 -48 8 -44 36 5 38 34
34 80 -10 23 -23 46 -41 50 -41 4 0 8 -29 8 -65 l0 -65 40 0 40 0 0 100 c0 60
-4 100 -10 100 -16 0 -12 36 6 50 12 11 18 10 31 -3 14 -13 14 -21 5 -42 -7
-14 -12 -66 -12 -115 l0 -90 40 0 40 0 0 180 0 180 -141 0 -140 0 -15 -35z
m240 -1 c9 -3 16 -17 16 -30 0 -24 -14 -32 -25 -14 -11 17 -41 11 -64 -14 -20
-21 -21 -30 -16 -92 l7 -69 -19 30 c-11 17 -43 50 -71 75 -29 24 -52 50 -52
56 0 6 9 23 21 38 19 24 26 26 104 26 46 0 90 -3 99 -6z m-189 -245 c10 -31
-3 -39 -66 -39 -65 0 -71 8 -44 59 l14 29 45 -15 c27 -9 48 -23 51 -34z"/>
<path d="M805 570 l0 -180 73 0 72 0 0 104 c0 59 -4 108 -10 111 -16 10 -12
52 6 59 31 12 62 -42 34 -59 -6 -3 -10 -52 -10 -111 l0 -104 340 0 340 0 0 40
0 40 -219 0 c-181 0 -221 -3 -231 -15 -9 -11 -17 -12 -31 -4 -23 12 -25 42 -4
59 12 10 20 9 40 -4 19 -13 49 -16 135 -15 l111 1 -87 89 -88 89 -113 0 c-73
0 -113 -4 -113 -11 0 -6 -12 -9 -27 -7 -22 2 -29 9 -31 31 -4 32 21 46 49 29
11 -7 62 -12 127 -12 l107 0 105 -105 105 -105 82 0 83 0 0 78 0 78 -53 52
-53 52 -369 0 -370 0 0 -180z m708 156 c56 -24 106 -85 112 -138 7 -57 -7 -68
-83 -68 -36 0 -54 5 -67 20 -10 11 -24 20 -32 20 -17 0 -16 6 3 88 25 107 18
99 67 78z m-579 -14 c3 -5 -3 -20 -12 -33 -14 -19 -17 -46 -17 -134 l0 -110
-30 0 -30 0 -3 129 c-2 86 1 133 9 142 12 15 75 19 83 6z m485 -1 c18 -11 6
-81 -13 -81 -18 0 -78 69 -71 81 8 11 65 12 84 0z m-124 -112 c63 -58 60 -72
-12 -66 -32 3 -72 8 -89 12 -26 6 -34 2 -57 -24 -22 -26 -25 -36 -17 -57 6
-14 10 -27 10 -30 0 -3 -26 -4 -57 -2 l-58 3 -3 65 c-2 35 -1 74 2 86 9 33 69
53 159 53 77 1 78 1 122 -40z m190 -160 c94 0 115 -2 115 -10 0 -4 -53 -8
-117 -8 -65 -1 -136 -6 -158 -11 -22 -5 -41 -8 -42 -6 -2 1 13 14 33 28 30 22
41 25 67 17 18 -5 64 -9 102 -10z"/>
</g>
</svg>
